<svg width="23" height="30" viewBox="0 0 23 30" fill="none" xmlns="http://www.w3.org/2000/svg">
<path d="M11.4286 22.8571C9.84286 22.8571 8.57143 21.5714 8.57143 20C8.57143 18.4143 9.84286 17.1429 11.4286 17.1429C12.1863 17.1429 12.9131 17.4439 13.4489 17.9797C13.9847 18.5155 14.2857 19.2422 14.2857 20C14.2857 20.7578 13.9847 21.4845 13.4489 22.0203C12.9131 22.5561 12.1863 22.8571 11.4286 22.8571ZM20 27.1429V12.8571H2.85714V27.1429H20ZM20 10C20.7578 10 21.4845 10.301 22.0203 10.8368C22.5561 11.3727 22.8571 12.0994 22.8571 12.8571V27.1429C22.8571 27.9006 22.5561 28.6273 22.0203 29.1632C21.4845 29.699 20.7578 30 20 30H2.85714C1.27143 30 0 28.7143 0 27.1429V12.8571C0 11.2714 1.27143 10 2.85714 10H4.28571V7.14286C4.28571 5.24845 5.03826 3.43164 6.37781 2.09209C7.71735 0.752549 9.53417 0 11.4286 0C12.3666 0 13.2954 0.184756 14.162 0.543718C15.0286 0.90268 15.8161 1.42882 16.4793 2.09209C17.1426 2.75537 17.6687 3.54279 18.0277 4.4094C18.3867 5.27602 18.5714 6.20484 18.5714 7.14286V10H20ZM11.4286 2.85714C10.2919 2.85714 9.20184 3.30867 8.39811 4.1124C7.59439 4.91613 7.14286 6.00622 7.14286 7.14286V10H15.7143V7.14286C15.7143 6.00622 15.2628 4.91613 14.459 4.1124C13.6553 3.30867 12.5652 2.85714 11.4286 2.85714Z" fill="white"/>
</svg>
