<svg width="25" height="24" viewBox="0 0 25 24" fill="none" xmlns="http://www.w3.org/2000/svg">
<path d="M18.795 7.115C19.1844 6.72564 19.1844 6.09436 18.795 5.705C18.4056 5.31564 17.7744 5.31564 17.385 5.705L13.2071 9.88289C12.8166 10.2734 12.1834 10.2734 11.7929 9.88289L7.615 5.705C7.22564 5.31564 6.59436 5.31564 6.205 5.705C5.81564 6.09436 5.81564 6.72564 6.205 7.115L10.3829 11.2929C10.7734 11.6834 10.7734 12.3166 10.3829 12.7071L6.205 16.885C5.81564 17.2744 5.81564 17.9056 6.205 18.295C6.59436 18.6844 7.22564 18.6844 7.615 18.295L11.7929 14.1171C12.1834 13.7266 12.8166 13.7266 13.2071 14.1171L17.385 18.295C17.7744 18.6844 18.4056 18.6844 18.795 18.295C19.1844 17.9056 19.1844 17.2744 18.795 16.885L14.6171 12.7071C14.2266 12.3166 14.2266 11.6834 14.6171 11.2929L18.795 7.115Z" fill="#E00000"/>
</svg>
