<svg width="30" height="30" viewBox="0 0 30 30" fill="none" xmlns="http://www.w3.org/2000/svg">
<path d="M17.7733 19.7867L21.2267 16.3333H8.33333V13.6667H21.2267L17.7733 10.2133L19.6667 8.33333L26.3333 15L19.6667 21.6667L17.7733 19.7867ZM24.3333 3C25.0406 3 25.7189 3.28095 26.219 3.78105C26.719 4.28115 27 4.95942 27 5.66667V11.8933L24.3333 9.22667V5.66667H5.66667V24.3333H24.3333V20.7733L27 18.1067V24.3333C27 25.0406 26.719 25.7189 26.219 26.219C25.7189 26.7191 25.0406 27 24.3333 27H5.66667C4.18667 27 3 25.8 3 24.3333V5.66667C3 4.18667 4.18667 3 5.66667 3H24.3333Z" fill="white"/>
</svg>
