<svg width="30" height="31" viewBox="0 0 30 31" fill="none" xmlns="http://www.w3.org/2000/svg">
<path d="M18.4667 21.4833L22.7833 17.1667H6.66667V13.8333H22.7833L18.4667 9.51667L20.8333 7.16667L29.1667 15.5L20.8333 23.8333L18.4667 21.4833ZM26.6667 0.5C27.5507 0.5 28.3986 0.851189 29.0237 1.47631C29.6488 2.10143 30 2.94928 30 3.83333V11.6167L26.6667 8.28333V3.83333H3.33333V27.1667H26.6667V22.7167L30 19.3833V27.1667C30 28.0507 29.6488 28.8986 29.0237 29.5237C28.3986 30.1488 27.5507 30.5 26.6667 30.5H3.33333C1.48333 30.5 0 29 0 27.1667V3.83333C0 1.98333 1.48333 0.5 3.33333 0.5H26.6667Z" fill="white"/>
</svg>
