<svg width="29" height="25" viewBox="0 0 29 25" fill="none" xmlns="http://www.w3.org/2000/svg">
<path d="M17.2005 7.00812H15.1364V13.8883L21.0259 17.3834L22.0166 15.7184L17.2005 12.8563V7.00812ZM16.5125 0.12793C13.2279 0.12793 10.0779 1.4327 7.75541 3.75522C5.43289 6.07773 4.12811 9.22774 4.12811 12.5123H0L5.44911 18.0577L11.0083 12.5123H6.88019C6.88019 9.95763 7.89502 7.50763 9.70142 5.70123C11.5078 3.89483 13.9578 2.88001 16.5125 2.88001C19.0671 2.88001 21.5171 3.89483 23.3235 5.70123C25.1299 7.50763 26.1447 9.95763 26.1447 12.5123C26.1447 15.0669 25.1299 17.5169 23.3235 19.3233C21.5171 21.1297 19.0671 22.1445 16.5125 22.1445C13.8567 22.1445 11.4486 21.0575 9.71483 19.3099L7.76086 21.2639C10.0038 23.5206 13.0724 24.8966 16.5125 24.8966C19.797 24.8966 22.947 23.5918 25.2695 21.2693C27.592 18.9468 28.8968 15.7968 28.8968 12.5123C28.8968 9.22774 27.592 6.07773 25.2695 3.75522C22.947 1.4327 19.797 0.12793 16.5125 0.12793" fill="white"/>
</svg>
