<svg width="32" height="30" viewBox="0 0 32 30" fill="none" xmlns="http://www.w3.org/2000/svg">
<path d="M17.7005 9.88019H15.6364V16.7604L21.5259 20.2555L22.5166 18.5905L17.7005 15.7283V9.88019ZM17.0125 3C13.7279 3 10.5779 4.30477 8.25541 6.62729C5.93289 8.9498 4.62811 12.0998 4.62811 15.3843H0.5L5.94911 20.9298L11.5083 15.3843H7.38019C7.38019 12.8297 8.39502 10.3797 10.2014 8.5733C12.0078 6.7669 14.4578 5.75208 17.0125 5.75208C19.5671 5.75208 22.0171 6.7669 23.8235 8.5733C25.6299 10.3797 26.6447 12.8297 26.6447 15.3843C26.6447 17.939 25.6299 20.389 23.8235 22.1954C22.0171 24.0018 19.5671 25.0166 17.0125 25.0166C14.3567 25.0166 11.9486 23.9295 10.2148 22.182L8.26086 24.1359C10.5038 26.3926 13.5724 27.7687 17.0125 27.7687C20.297 27.7687 23.447 26.4639 25.7695 24.1414C28.092 21.8189 29.3968 18.6689 29.3968 15.3843C29.3968 12.0998 28.092 8.9498 25.7695 6.62729C23.447 4.30477 20.297 3 17.0125 3" fill="white"/>
</svg>
