<svg width="79" height="20" viewBox="0 0 79 20" fill="none" xmlns="http://www.w3.org/2000/svg">
<path d="M56.1402 0H53.158L56.1402 1.75438H57.5439L56.1402 0Z" fill="#007F90"/>
<path d="M14.0351 19.821H8.72064L3.91321 14.386V19.821H0V2.45617H3.91321V8.24564L8.72064 2.45617H14.0351L6.49122 11.1386L14.0351 19.821Z" fill="#007F90"/>
<path d="M78.1831 19.234C78.6931 18.7233 78.9477 18.1138 78.9477 17.4055V10.981C78.9477 10.2726 78.6931 9.66317 78.1831 9.15244C77.6737 8.64184 77.0657 8.38651 76.3598 8.38651H67.8558V6.16262H78.9477V2.45617H66.5003C65.7933 2.45617 65.1853 2.7115 64.6761 3.22216C64.1665 3.73283 63.9122 4.34233 63.9122 5.05067V9.49844C63.9122 10.2068 64.1665 10.8162 64.6761 11.3269C65.1853 11.8376 65.7933 12.0929 66.5003 12.0929H75.0038V16.2935H63.9122V20H76.3598C77.0657 20 77.6737 19.7446 78.1831 19.234Z" fill="#007F90"/>
<path d="M47.5046 19.8765H43.8074V11.2281L39.6172 19.8765H36.6594L32.4692 11.2281V19.8765H28.772V2.57972H32.4692L38.0891 14.3168L43.8074 2.57972H47.5046V19.8765Z" fill="#007F90"/>
<path d="M62.5477 19.8765H51.456C50.7823 19.8765 50.199 19.6376 49.706 19.1599C49.2295 18.6657 48.9912 18.0809 48.9912 17.4055V5.05068C48.9912 4.37529 49.2295 3.79873 49.706 3.32101C50.199 2.82682 50.7823 2.57972 51.456 2.57972H62.5477V6.03908H52.6884V8.51004H62.5477V11.9694H52.6884V16.4171H62.5477V19.8765Z" fill="#007F90"/>
<path d="M12.6521 6.87158L13.0268 7.14384L13.3784 6.65984L13.0037 6.38759L12.6521 6.87158Z" fill="#007F90"/>
<path d="M23.9386 4.8491C23.962 4.81693 23.9515 4.78469 23.907 4.75238L23.5735 4.51005L23.4528 4.6761L23.7863 4.91844C23.8308 4.95075 23.8647 4.95082 23.8881 4.91865L23.9386 4.8491Z" fill="#007F90"/>
<path d="M25.6163 15.1408L25.7682 15.4571L25.9682 15.1817L25.6163 15.1408Z" fill="#007F90"/>
<path d="M22.0344 18.3235L21.9713 18.6687L22.295 18.5635L22.0344 18.3235Z" fill="#007F90"/>
<path d="M12.0395 12.7308L11.599 12.874L11.7839 13.443L12.2244 13.2998L12.0395 12.7308Z" fill="#007F90"/>
<path d="M18.897 11.228C18.897 11.5188 19.1326 11.7544 19.4233 11.7544C19.7139 11.7544 19.9496 11.5188 19.9496 11.228C19.9496 10.9374 19.7139 10.7018 19.4233 10.7018C19.1326 10.7018 18.897 10.9374 18.897 11.228Z" fill="#007F90"/>
<path fill-rule="evenodd" clip-rule="evenodd" d="M10.8769 11.3158C10.8769 16.015 14.6869 19.8245 19.3869 19.8245C24.0868 19.8245 27.8968 16.015 27.8968 11.3158C27.8968 6.61646 24.0868 2.80698 19.3869 2.80698C14.6869 2.80698 10.8769 6.61646 10.8769 11.3158ZM11.9418 8.90504L11.8103 8.8627L11.658 9.32657L12.1031 9.4697L12.2554 9.00584L12.1037 8.95704L12.196 8.7949L12.2804 8.82197C12.3467 8.84337 12.3871 8.87077 12.4015 8.9043C12.416 8.93784 12.4115 8.99024 12.3882 9.06137L12.2435 9.50197C12.2202 9.5731 12.1924 9.6177 12.1604 9.6357C12.1284 9.6537 12.0798 9.65224 12.0146 9.63124L11.6386 9.5103C11.5723 9.48904 11.5318 9.4619 11.5172 9.4289C11.5026 9.39584 11.5069 9.34377 11.5302 9.27257L11.675 8.8321C11.6983 8.7609 11.7258 8.71597 11.7574 8.69724C11.789 8.67851 11.838 8.67977 11.9044 8.7011L11.9735 8.72337L11.9418 8.90504ZM12.9149 7.27038L12.595 7.04044C12.5377 6.99918 12.5074 6.96078 12.5042 6.92531C12.5011 6.88978 12.5218 6.84171 12.5662 6.78118L12.907 6.31706C12.9514 6.25652 12.9913 6.22222 13.0264 6.21421C13.0615 6.2062 13.1077 6.22281 13.1651 6.26405L13.485 6.49399C13.5414 6.53459 13.5712 6.57303 13.5745 6.60932C13.5778 6.64566 13.5575 6.69364 13.5138 6.75324L13.173 7.21738C13.1285 7.27791 13.0885 7.31204 13.0529 7.31971C13.0173 7.32738 12.9714 7.31091 12.9149 7.27038ZM14.9104 5.41394L14.7914 5.49954L14.3506 4.89917L14.4696 4.81358L15.028 4.95638L15.062 4.3877L15.181 4.30211L15.6217 4.90248L15.4841 5.00148L15.1808 4.58846L15.1599 5.12399L15.1312 5.14461L14.6144 5.01087L14.9104 5.41394ZM17.5994 4.30428L17.4594 4.34927L17.2276 3.64349L17.3676 3.59849L17.8541 3.90507L18.0639 3.3746L18.2039 3.3296L18.4357 4.03538L18.2738 4.08743L18.1144 3.60189L17.9272 4.1048L17.8935 4.11563L17.4437 3.83042L17.5994 4.30428ZM21.3159 4.28027L20.5419 4.03143L20.7737 3.32564L21.5392 3.57177L21.4981 3.69691L20.908 3.50716L20.8575 3.66067L21.2015 3.77127L21.1615 3.89307L20.8176 3.78247L20.7606 3.95599L21.3591 4.14845L21.3159 4.28027ZM23.3428 5.00679L23.1965 4.9016L23.6373 4.30123L24.1837 4.69412C24.2784 4.76218 24.2973 4.835 24.2403 4.9126L24.1361 5.05452C24.0799 5.13117 24.0043 5.13546 23.9097 5.0674L23.8265 5.0076L23.9481 5.44196L23.7358 5.28934L23.6486 4.87972L23.5095 4.7797L23.3428 5.00679ZM25.9776 6.96524L26.0894 6.88478L25.7997 6.49023L25.4211 6.76244L25.7108 7.15698L25.8399 7.06418L25.9181 7.23351L25.8464 7.28504C25.79 7.32558 25.7438 7.34178 25.7079 7.33364C25.672 7.32558 25.6318 7.29118 25.5873 7.23058L25.3122 6.85591C25.2677 6.79531 25.2476 6.74698 25.2517 6.71078C25.2558 6.67458 25.2856 6.63652 25.3411 6.59668L25.6609 6.36673C25.7173 6.32615 25.7633 6.30969 25.7988 6.31738C25.8344 6.32507 25.8744 6.35915 25.9189 6.41969L26.194 6.79444C26.2385 6.85498 26.2591 6.90338 26.2558 6.93971C26.2525 6.97611 26.2227 7.01451 26.1662 7.05504L26.1074 7.09738L25.9776 6.96524ZM26.8176 9.7971L26.5662 9.03124L27.2794 8.8019L27.5281 9.55944L27.4017 9.60004L27.2099 9.0161L27.0548 9.06597L27.1666 9.40637L27.0435 9.4459L26.9317 9.10557L26.7564 9.16197L26.9508 9.75423L26.8176 9.7971ZM27.3348 12.5628L27.0958 13.2903L26.3826 13.061L26.4396 12.8874L27.0196 13.0739L27.2015 12.52L27.3348 12.5628ZM26.0681 15.7701L25.9608 15.9163L25.6156 15.1238L25.7188 14.9834L26.5913 15.0576L26.4704 15.2222L26.2818 15.2016L25.99 15.599L26.0681 15.7701ZM24.3712 17.8419L24.2363 17.9389L23.7955 17.3385L23.8974 17.2653L24.7051 17.2939L24.4123 16.8951L24.5457 16.7992L24.9865 17.3996L24.8847 17.4728L24.0742 17.4375L24.3712 17.8419ZM22.018 19.0049L21.8444 19.0607L22.0359 18.2189L22.2028 18.1653L22.8645 18.7327L22.6689 18.7957L22.5286 18.6692L22.0565 18.821L22.018 19.0049ZM19.6969 19.0052V18.8683H19.204V19.3315H19.6969V19.1736L19.8813 19.2105V19.2981C19.8813 19.3672 19.8674 19.4137 19.8396 19.4377C19.8118 19.4617 19.7601 19.4736 19.6845 19.4736H19.2164C19.1407 19.4736 19.0893 19.4613 19.0622 19.4367C19.0349 19.4122 19.0214 19.366 19.0214 19.2981V18.9069C19.0214 18.8379 19.0349 18.7914 19.0622 18.7675C19.0893 18.7435 19.1407 18.7315 19.2164 18.7315H19.6845C19.7601 18.7315 19.8118 18.7435 19.8396 18.7675C19.8674 18.7914 19.8813 18.8379 19.8813 18.9069V18.9789L19.6969 19.0052ZM16.872 18.948L16.6983 18.8922L16.9301 18.1864L17.1037 18.2422L16.872 18.948ZM14.3723 17.4756L14.2374 17.3787L14.6782 16.7783L14.7801 16.8515L15.0022 17.6205L15.2949 17.2217L15.4283 17.3177L14.9876 17.9181L14.8858 17.8448L14.6692 17.0711L14.3723 17.4756ZM12.5066 15.4239L12.42 15.3061L13.0268 14.8699L13.1132 14.9878L12.969 15.5403L13.5436 15.5739L13.6301 15.6917L13.0234 16.1279L12.9234 15.9917L13.3408 15.6915L12.7996 15.6708L12.7787 15.6424L12.9138 15.1311L12.5066 15.4239ZM11.5822 12.6918L11.9582 12.5709C12.0256 12.5492 12.0748 12.5476 12.1058 12.5659C12.1366 12.5843 12.1638 12.6291 12.1871 12.7003L12.3662 13.2458C12.3896 13.317 12.3943 13.369 12.3802 13.4019C12.3662 13.4347 12.3254 13.462 12.2579 13.4836L11.8819 13.6045C11.8156 13.6258 11.7666 13.6272 11.735 13.6084C11.7034 13.5897 11.676 13.5453 11.653 13.4752L11.4738 12.9296C11.4505 12.8584 11.4462 12.8063 11.4608 12.7733C11.4754 12.7403 11.5159 12.7132 11.5822 12.6918ZM20.0135 5.61399C20.0135 5.90469 19.7753 6.14029 19.4816 6.14029C19.1879 6.14029 18.9497 5.90469 18.9497 5.61399C18.9497 5.32332 19.1879 5.08768 19.4816 5.08768C19.7753 5.08768 20.0135 5.32332 20.0135 5.61399ZM20.0135 17.3721C20.0135 17.6627 19.7753 17.8984 19.4816 17.8984C19.1879 17.8984 18.9497 17.6627 18.9497 17.3721C18.9497 17.0814 19.1879 16.8458 19.4816 16.8458C19.7753 16.8458 20.0135 17.0814 20.0135 17.3721ZM13.7136 11.2922C13.7136 11.5829 13.4754 11.8186 13.1816 11.8186C12.888 11.8186 12.6498 11.5829 12.6498 11.2922C12.6498 11.0016 12.888 10.7659 13.1816 10.7659C13.4754 10.7659 13.7136 11.0016 13.7136 11.2922ZM25.759 11.2996C25.759 11.5903 25.5209 11.826 25.2272 11.826C24.9335 11.826 24.6953 11.5903 24.6953 11.2996C24.6953 11.009 24.9335 10.7734 25.2272 10.7734C25.5209 10.7734 25.759 11.009 25.759 11.2996ZM16.203 16.1131C15.7789 16.3294 15.4607 16.4917 15.3078 16.4917C16.2817 15.7339 18.0219 14.3822 19.5468 14.3822C21.1525 14.3822 22.3818 15.5032 23.3445 16.3811C23.3855 16.4185 23.4259 16.4553 23.4659 16.4917C23.2571 16.4917 22.9089 16.297 22.4667 16.0498C21.6977 15.62 20.6446 15.0314 19.5468 15.0314C18.3237 15.0314 17.0513 15.6803 16.203 16.1131ZM19.5468 8.07377C18.0219 8.07377 16.2817 6.72204 15.3078 5.96431C15.4607 5.96431 15.7788 6.12657 16.203 6.34297C17.0513 6.77564 18.3237 7.42471 19.5468 7.42471C20.6446 7.42471 21.6977 6.83604 22.4667 6.4062C22.9089 6.15899 23.2571 5.96431 23.4659 5.96431C23.4262 6.00045 23.386 6.03711 23.3453 6.07421L23.3445 6.07491C22.3818 6.95278 21.1525 8.07377 19.5468 8.07377ZM14.4827 8.12924C14.2458 7.79391 14.0682 7.54238 14.0682 7.37464C14.2604 7.70491 14.5375 8.03164 14.8286 8.37491C15.4793 9.14217 16.1999 9.99197 16.1999 11.1478C16.1999 12.6198 15.3003 13.8036 14.5666 14.7692C14.3849 15.0083 14.2134 15.2339 14.0682 15.4474C14.0682 15.2183 14.2813 14.8364 14.5519 14.3512C15.0224 13.5075 15.6669 12.3521 15.6669 11.1478C15.6669 9.80583 14.9564 8.7999 14.4827 8.12924ZM24.2379 7.81664C24.4097 7.59958 24.5705 7.39644 24.7057 7.20951C24.7057 7.36391 24.5364 7.64911 24.3108 8.02937C23.8597 8.7899 23.1829 9.9307 23.1829 11.1652C23.1829 12.2732 23.7967 13.4012 24.2449 14.225C24.5027 14.6986 24.7057 15.0717 24.7057 15.2823C24.6643 15.2335 24.622 15.1836 24.5787 15.1327C23.7447 14.1505 22.5739 12.7715 22.5739 11.1652C22.5739 9.9187 23.5058 8.74144 24.2379 7.81664ZM20.3999 13.808L20.2959 13.8596H20.1919L20.0358 13.7564L19.9317 13.55L19.8797 13.3952V13.2404L19.8277 12.9824L19.7757 12.6728L19.7236 12.3116L19.6716 12.1568L19.5676 11.9504H19.4375L19.3075 12.002L19.2034 12.1568L19.0993 12.26L18.8913 12.776L18.5791 13.6016L18.5271 13.7564L18.4751 13.808H18.267L18.1629 13.7564L18.0069 13.6532L17.9028 13.6016L17.5386 13.2404V13.0856L17.6427 12.9824L17.6947 12.8792L18.0069 12.5696L18.267 12.3632L18.7872 11.8472V11.744L18.7351 11.6408L18.5271 11.5376L18.423 11.5892L18.267 11.6408L18.0589 11.744L17.7987 11.8472L17.3826 12.002L16.9143 12.1568H16.7583L16.7063 12.0536L16.6542 11.8988L16.5502 11.486V11.2796L16.6022 11.0732L16.7063 10.97L16.8103 10.9184H17.0184L17.2265 10.97L17.5907 11.0216L18.0069 11.0732L18.3711 11.1248H18.5791L18.6832 11.0216L18.6311 10.9184L18.5271 10.8152L18.3711 10.712L17.4346 10.2476L17.1745 10.0928L16.9663 9.93803L16.8623 9.83483V9.73163L17.1225 9.37044L17.5907 9.00924L17.8507 9.26724L18.0069 9.47364L18.8913 10.6604H19.0473L19.1514 10.6088L19.2034 10.5056V10.3508L19.1514 10.2476L18.8392 9.26724L18.7872 9.00924V8.80284L18.8392 8.69964L19.1514 8.59644H19.6716L19.8797 8.64804L19.9317 8.75124V9.31884L19.8797 9.47364L19.7236 10.2992V10.4024L19.7757 10.5572L19.8797 10.6088H19.9837L20.0878 10.5572L21.2843 9.26724H21.4925L21.7006 9.47364L21.7525 9.57684L21.8566 9.68003L21.9087 9.83483L22.0127 10.0412L21.9607 10.1444L21.8566 10.196L21.7525 10.2992L21.5965 10.4024L20.3999 11.0732L20.2959 11.1764L20.2439 11.2796L20.2959 11.3312L20.3999 11.3828L22.1167 11.4344L22.2728 11.486L22.3249 11.5892V11.744L22.2208 12.1568L22.1167 12.3632L22.0127 12.518L21.8566 12.6212L20.3999 11.7956L20.2959 11.744L20.1919 11.7956L20.1399 11.8472V12.0536L21.0243 13.2404L21.0763 13.3952L20.8681 13.6016L20.7121 13.7048L20.3999 13.808Z" fill="#007F90"/>
</svg>
