<svg width="100" height="100" viewBox="0 0 100 100" fill="none" xmlns="http://www.w3.org/2000/svg">
<rect width="100" height="100" rx="50" fill="#007F90"/>
<path d="M66.6665 40H63.6843L66.6665 41.7544H68.0702L66.6665 40Z" fill="white"/>
<path d="M24.5615 59.821H19.247L14.4396 54.386V59.821H10.5264V42.4562H14.4396V48.2456L19.247 42.4562H24.5615L17.0176 51.1386L24.5615 59.821Z" fill="white"/>
<path d="M88.7094 59.234C89.2194 58.7233 89.4741 58.1138 89.4741 57.4055V50.981C89.4741 50.2726 89.2194 49.6632 88.7094 49.1524C88.2001 48.6418 87.5921 48.3865 86.8861 48.3865H78.3821V46.1626H89.4741V42.4562H77.0267C76.3197 42.4562 75.7116 42.7115 75.2025 43.2222C74.6928 43.7328 74.4386 44.3423 74.4386 45.0507V49.4984C74.4386 50.2068 74.6928 50.8162 75.2025 51.3269C75.7116 51.8376 76.3197 52.0929 77.0267 52.0929H85.5301V56.2935H74.4386V60H86.8861C87.5921 60 88.2001 59.7446 88.7094 59.234Z" fill="white"/>
<path d="M58.0309 59.8765H54.3338V51.2281L50.1436 59.8765H47.1858L42.9956 51.2281V59.8765H39.2984V42.5797H42.9956L48.6154 54.3168L54.3338 42.5797H58.0309V59.8765Z" fill="white"/>
<path d="M73.074 59.8765H61.9824C61.3087 59.8765 60.7253 59.6376 60.2324 59.1599C59.7559 58.6657 59.5176 58.0809 59.5176 57.4055V45.0507C59.5176 44.3753 59.7559 43.7987 60.2324 43.321C60.7253 42.8268 61.3087 42.5797 61.9824 42.5797H73.074V46.0391H63.2148V48.51H73.074V51.9694H63.2148V56.4171H73.074V59.8765Z" fill="white"/>
<path d="M23.1785 46.8716L23.5531 47.1438L23.9048 46.6598L23.5301 46.3876L23.1785 46.8716Z" fill="white"/>
<path d="M34.465 44.8491C34.4884 44.8169 34.4778 44.7847 34.4334 44.7524L34.0998 44.5101L33.9792 44.6761L34.3127 44.9184C34.3572 44.9508 34.3911 44.9508 34.4145 44.9187L34.465 44.8491Z" fill="white"/>
<path d="M36.1427 55.1408L36.2946 55.4571L36.4946 55.1817L36.1427 55.1408Z" fill="white"/>
<path d="M32.5608 58.3235L32.4977 58.6687L32.8214 58.5635L32.5608 58.3235Z" fill="white"/>
<path d="M22.5659 52.7308L22.1254 52.874L22.3103 53.443L22.7507 53.2998L22.5659 52.7308Z" fill="white"/>
<path d="M29.4234 51.228C29.4234 51.5188 29.659 51.7544 29.9497 51.7544C30.2403 51.7544 30.476 51.5188 30.476 51.228C30.476 50.9374 30.2403 50.7018 29.9497 50.7018C29.659 50.7018 29.4234 50.9374 29.4234 51.228Z" fill="white"/>
<path fill-rule="evenodd" clip-rule="evenodd" d="M21.4033 51.3158C21.4033 56.015 25.2133 59.8245 29.9132 59.8245C34.6132 59.8245 38.4232 56.015 38.4232 51.3158C38.4232 46.6165 34.6132 42.807 29.9132 42.807C25.2133 42.807 21.4033 46.6165 21.4033 51.3158ZM22.4682 48.905L22.3367 48.8627L22.1843 49.3266L22.6295 49.4697L22.7818 49.0058L22.6301 48.957L22.7224 48.7949L22.8067 48.822C22.8731 48.8434 22.9135 48.8708 22.9279 48.9043C22.9423 48.9378 22.9379 48.9902 22.9145 49.0614L22.7699 49.502C22.7465 49.5731 22.7188 49.6177 22.6868 49.6357C22.6548 49.6537 22.6062 49.6522 22.541 49.6312L22.165 49.5103C22.0987 49.489 22.0582 49.4619 22.0435 49.4289C22.0289 49.3958 22.0333 49.3438 22.0566 49.2726L22.2013 48.8321C22.2247 48.7609 22.2522 48.716 22.2838 48.6972C22.3154 48.6785 22.3644 48.6798 22.4307 48.7011L22.4999 48.7234L22.4682 48.905ZM23.4413 47.2704L23.1214 47.0404C23.0641 46.9992 23.0338 46.9608 23.0306 46.9253C23.0275 46.8898 23.0482 46.8417 23.0926 46.7812L23.4334 46.3171C23.4778 46.2565 23.5177 46.2222 23.5527 46.2142C23.5879 46.2062 23.6341 46.2228 23.6915 46.264L24.0113 46.494C24.0677 46.5346 24.0976 46.573 24.1009 46.6093C24.1041 46.6457 24.0839 46.6936 24.0401 46.7532L23.6993 47.2174C23.6549 47.2779 23.6149 47.312 23.5793 47.3197C23.5437 47.3274 23.4977 47.3109 23.4413 47.2704ZM25.4367 45.4139L25.3177 45.4995L24.8769 44.8992L24.9959 44.8136L25.5544 44.9564L25.5883 44.3877L25.7074 44.3021L26.1481 44.9025L26.0104 45.0015L25.7072 44.5885L25.6863 45.124L25.6575 45.1446L25.1408 45.0109L25.4367 45.4139ZM28.1258 44.3043L27.9858 44.3493L27.754 43.6435L27.894 43.5985L28.3805 43.9051L28.5903 43.3746L28.7303 43.3296L28.962 44.0354L28.8002 44.0874L28.6408 43.6019L28.4536 44.1048L28.4198 44.1156L27.9701 43.8304L28.1258 44.3043ZM31.8423 44.2803L31.0683 44.0314L31.3 43.3256L32.0656 43.5718L32.0245 43.6969L31.4344 43.5072L31.3839 43.6607L31.7279 43.7713L31.6879 43.8931L31.344 43.7825L31.287 43.956L31.8855 44.1485L31.8423 44.2803ZM33.8692 45.0068L33.7228 44.9016L34.1636 44.3012L34.7101 44.6941C34.8048 44.7622 34.8236 44.835 34.7666 44.9126L34.6624 45.0545C34.6062 45.1312 34.5307 45.1355 34.436 45.0674L34.3529 45.0076L34.4744 45.442L34.2622 45.2893L34.175 44.8797L34.0359 44.7797L33.8692 45.0068ZM36.5039 46.9652L36.6158 46.8848L36.3261 46.4902L35.9475 46.7624L36.2371 47.157L36.3663 47.0642L36.4445 47.2335L36.3727 47.285C36.3164 47.3256 36.2702 47.3418 36.2343 47.3336C36.1983 47.3256 36.1581 47.2912 36.1137 47.2306L35.8386 46.8559C35.7941 46.7953 35.774 46.747 35.778 46.7108C35.7822 46.6746 35.812 46.6365 35.8674 46.5967L36.1872 46.3667C36.2436 46.3261 36.2897 46.3097 36.3252 46.3174C36.3608 46.3251 36.4008 46.3592 36.4453 46.4197L36.7204 46.7944C36.7649 46.855 36.7855 46.9034 36.7821 46.9397C36.7789 46.9761 36.7491 47.0145 36.6926 47.055L36.6338 47.0974L36.5039 46.9652ZM37.344 49.7971L37.0925 49.0312L37.8057 48.8019L38.0545 49.5594L37.9281 49.6L37.7363 49.0161L37.5811 49.066L37.6929 49.4064L37.5699 49.4459L37.4581 49.1056L37.2827 49.162L37.4772 49.7542L37.344 49.7971ZM37.8611 52.5628L37.6222 53.2903L36.909 53.061L36.9659 52.8874L37.546 53.0739L37.7279 52.52L37.8611 52.5628ZM36.5945 55.7701L36.4871 55.9163L36.142 55.1238L36.2452 54.9834L37.1177 55.0576L36.9967 55.2222L36.8081 55.2016L36.5163 55.599L36.5945 55.7701ZM34.8976 57.8419L34.7627 57.9389L34.3219 57.3385L34.4238 57.2653L35.2315 57.2939L34.9387 56.8951L35.072 56.7992L35.5128 57.3996L35.411 57.4728L34.6006 57.4375L34.8976 57.8419ZM32.5444 59.0049L32.3708 59.0607L32.5622 58.2189L32.7292 58.1653L33.3909 58.7327L33.1953 58.7957L33.055 58.6692L32.5828 58.821L32.5444 59.0049ZM30.2232 59.0052V58.8683H29.7304V59.3315H30.2232V59.1736L30.4076 59.2105V59.2981C30.4076 59.3672 30.3938 59.4137 30.366 59.4377C30.3382 59.4617 30.2865 59.4736 30.2108 59.4736H29.7428C29.6671 59.4736 29.6157 59.4613 29.5886 59.4367C29.5613 59.4122 29.5478 59.366 29.5478 59.2981V58.9069C29.5478 58.8379 29.5613 58.7914 29.5886 58.7675C29.6157 58.7435 29.6671 58.7315 29.7428 58.7315H30.2108C30.2865 58.7315 30.3382 58.7435 30.366 58.7675C30.3938 58.7914 30.4076 58.8379 30.4076 58.9069V58.9789L30.2232 59.0052ZM27.3984 58.948L27.2247 58.8922L27.4564 58.1864L27.6301 58.2422L27.3984 58.948ZM24.8987 57.4756L24.7638 57.3787L25.2046 56.7783L25.3065 56.8515L25.5285 57.6205L25.8213 57.2217L25.9547 57.3177L25.5139 57.9181L25.4121 57.8448L25.1956 57.0711L24.8987 57.4756ZM23.0329 55.4239L22.9464 55.3061L23.5531 54.8699L23.6396 54.9878L23.4953 55.5403L24.07 55.5739L24.1565 55.6917L23.5497 56.1279L23.4497 55.9917L23.8671 55.6915L23.3259 55.6708L23.3051 55.6424L23.4402 55.1311L23.0329 55.4239ZM22.1086 52.6918L22.4846 52.5709C22.552 52.5492 22.6012 52.5476 22.6321 52.5659C22.663 52.5843 22.6901 52.6291 22.7135 52.7003L22.8926 53.2458C22.916 53.317 22.9207 53.369 22.9066 53.4019C22.8925 53.4347 22.8517 53.462 22.7843 53.4836L22.4083 53.6045C22.342 53.6258 22.293 53.6272 22.2613 53.6084C22.2297 53.5897 22.2024 53.5453 22.1794 53.4752L22.0002 52.9296C21.9769 52.8584 21.9725 52.8063 21.9871 52.7733C22.0018 52.7403 22.0423 52.7132 22.1086 52.6918ZM30.5398 45.614C30.5398 45.9047 30.3017 46.1403 30.008 46.1403C29.7142 46.1403 29.4761 45.9047 29.4761 45.614C29.4761 45.3233 29.7142 45.0877 30.008 45.0877C30.3017 45.0877 30.5398 45.3233 30.5398 45.614ZM30.5398 57.3721C30.5398 57.6627 30.3017 57.8984 30.008 57.8984C29.7142 57.8984 29.4761 57.6627 29.4761 57.3721C29.4761 57.0814 29.7142 56.8458 30.008 56.8458C30.3017 56.8458 30.5398 57.0814 30.5398 57.3721ZM24.2399 51.2922C24.2399 51.5829 24.0018 51.8186 23.708 51.8186C23.4143 51.8186 23.1762 51.5829 23.1762 51.2922C23.1762 51.0016 23.4143 50.7659 23.708 50.7659C24.0018 50.7659 24.2399 51.0016 24.2399 51.2922ZM36.2854 51.2996C36.2854 51.5903 36.0473 51.826 35.7536 51.826C35.4598 51.826 35.2217 51.5903 35.2217 51.2996C35.2217 51.009 35.4598 50.7734 35.7536 50.7734C36.0473 50.7734 36.2854 51.009 36.2854 51.2996ZM26.7294 56.1131C26.3052 56.3294 25.9871 56.4917 25.8342 56.4917C26.8081 55.7339 28.5483 54.3822 30.0732 54.3822C31.6789 54.3822 32.9082 55.5032 33.8709 56.3811C33.9118 56.4185 33.9523 56.4553 33.9923 56.4917C33.7835 56.4917 33.4352 56.297 32.993 56.0498C32.224 55.62 31.171 55.0314 30.0732 55.0314C28.8501 55.0314 27.5777 55.6803 26.7294 56.1131ZM30.0732 48.0738C28.5483 48.0738 26.8081 46.722 25.8342 45.9643C25.9871 45.9643 26.3052 46.1266 26.7294 46.343C27.5777 46.7756 28.8501 47.4247 30.0732 47.4247C31.171 47.4247 32.224 46.836 32.993 46.4062C33.4352 46.159 33.7835 45.9643 33.9923 45.9643C33.9526 46.0004 33.9124 46.0371 33.8716 46.0742L33.8709 46.0749C32.9082 46.9528 31.6789 48.0738 30.0732 48.0738ZM25.0091 48.1292C24.7721 47.7939 24.5945 47.5424 24.5945 47.3746C24.7868 47.7049 25.0639 48.0316 25.355 48.3749C26.0056 49.1422 26.7262 49.992 26.7262 51.1478C26.7262 52.6198 25.8267 53.8036 25.0929 54.7692C24.9113 55.0083 24.7397 55.2339 24.5945 55.4474C24.5945 55.2183 24.8077 54.8364 25.0783 54.3512C25.5488 53.5075 26.1933 52.3521 26.1933 51.1478C26.1933 49.8058 25.4827 48.7999 25.0091 48.1292ZM34.7642 47.8166C34.936 47.5996 35.0968 47.3964 35.232 47.2095C35.232 47.3639 35.0628 47.6491 34.8372 48.0294C34.386 48.7899 33.7093 49.9307 33.7093 51.1652C33.7093 52.2732 34.3231 53.4012 34.7713 54.225C35.029 54.6986 35.232 55.0717 35.232 55.2823C35.1907 55.2335 35.1484 55.1836 35.1051 55.1327C34.2711 54.1505 33.1002 52.7715 33.1002 51.1652C33.1002 49.9187 34.0322 48.7414 34.7642 47.8166ZM30.9263 53.808L30.8222 53.8596H30.7182L30.5622 53.7564L30.4581 53.55L30.4061 53.3952V53.2404L30.3541 52.9824L30.302 52.6728L30.25 52.3116L30.198 52.1568L30.094 51.9504H29.9639L29.8338 52.002L29.7298 52.1568L29.6257 52.26L29.4176 52.776L29.1055 53.6016L29.0534 53.7564L29.0014 53.808H28.7934L28.6893 53.7564L28.5332 53.6532L28.4292 53.6016L28.065 53.2404V53.0856L28.169 52.9824L28.2211 52.8792L28.5332 52.5696L28.7934 52.3632L29.3136 51.8472V51.744L29.2615 51.6408L29.0534 51.5376L28.9494 51.5892L28.7934 51.6408L28.5853 51.744L28.3251 51.8472L27.909 52.002L27.4407 52.1568H27.2846L27.2326 52.0536L27.1806 51.8988L27.0766 51.486V51.2796L27.1286 51.0732L27.2326 50.97L27.3367 50.9184H27.5448L27.7528 50.97L28.117 51.0216L28.5332 51.0732L28.8974 51.1248H29.1055L29.2096 51.0216L29.1575 50.9184L29.0534 50.8152L28.8974 50.712L27.961 50.2476L27.7008 50.0928L27.4927 49.938L27.3887 49.8348V49.7316L27.6488 49.3704L28.117 49.0092L28.3771 49.2672L28.5332 49.4736L29.4176 50.6604H29.5737L29.6778 50.6088L29.7298 50.5056V50.3508L29.6778 50.2476L29.3656 49.2672L29.3136 49.0092V48.8028L29.3656 48.6996L29.6778 48.5964H30.198L30.4061 48.648L30.4581 48.7512V49.3188L30.4061 49.4736L30.25 50.2992V50.4024L30.302 50.5572L30.4061 50.6088H30.5101L30.6142 50.5572L31.8107 49.2672H32.0188L32.227 49.4736L32.2789 49.5768L32.383 49.68L32.435 49.8348L32.5391 50.0412L32.487 50.1444L32.383 50.196L32.2789 50.2992L32.1229 50.4024L30.9263 51.0732L30.8222 51.1764L30.7702 51.2796L30.8222 51.3312L30.9263 51.3828L32.6431 51.4344L32.7992 51.486L32.8512 51.5892V51.744L32.7472 52.1568L32.6431 52.3632L32.5391 52.518L32.383 52.6212L30.9263 51.7956L30.8222 51.744L30.7182 51.7956L30.6662 51.8472V52.0536L31.5506 53.2404L31.6026 53.3952L31.3945 53.6016L31.2385 53.7048L30.9263 53.808Z" fill="white"/>
</svg>
