<svg width="79" height="20" viewBox="0 0 79 20" fill="none" xmlns="http://www.w3.org/2000/svg">
<path d="M53.1562 0H56.1367L57.543 1.75439H56.1367L53.1562 0Z" fill="white"/>
<path d="M8.71875 19.8209H14.0352L6.49219 11.1385L14.0352 2.4561H8.71875L3.91406 8.2455V2.4561H0V19.8209H3.91406V14.3859L8.71875 19.8209Z" fill="white"/>
<path d="M78.1797 19.2339C78.6914 18.7232 78.9453 18.1137 78.9453 17.4054V10.9809C78.9453 10.2725 78.6914 9.6631 78.1797 9.1523C77.6719 8.64171 77.0625 8.3864 76.3594 8.3864H67.8555V6.16251H78.9453V2.4561H66.5C65.793 2.4561 65.1836 2.7114 64.6758 3.22211C64.1641 3.7327 63.9102 4.34219 63.9102 5.0506V9.49829C63.9102 10.2067 64.1641 10.8161 64.6758 11.3268C65.1836 11.8375 65.793 12.0928 66.5 12.0928H75V16.2934H63.9102V19.9999H76.3594C77.0625 19.9999 77.6719 19.7445 78.1797 19.2339Z" fill="white"/>
<path d="M43.8047 19.8764H47.5039V2.57961H43.8047L38.0859 14.3167L32.4648 2.57961H28.7695V19.8764H32.4648V11.228L36.6562 19.8764H39.6133L43.8047 11.228V19.8764Z" fill="white"/>
<path d="M62.5469 19.8764H51.457C50.7852 19.8764 50.1992 19.6375 49.707 19.1598C49.2305 18.6656 48.9922 18.0808 48.9922 17.4054V5.0506C48.9922 4.3752 49.2305 3.7986 49.707 3.32091C50.1992 2.82671 50.7852 2.57961 51.457 2.57961H62.5469V6.039H52.6875V8.5099H62.5469V11.9693H52.6875V16.417H62.5469V19.8764Z" fill="white"/>
<path d="M13.0273 7.14389L12.6523 6.8717L13.0039 6.3877L13.3789 6.6599L13.0273 7.14389Z" fill="white"/>
<path d="M11.5977 12.8742L12.0391 12.731L12.2227 13.3L11.7812 13.4432L11.5977 12.8742Z" fill="white"/>
<path d="M18.8945 11.2279C18.8945 11.5187 19.1289 11.7543 19.4219 11.7543C19.5977 11.7543 19.7539 11.6671 19.8477 11.5334C19.9102 11.4473 19.9453 11.3418 19.9453 11.2279C19.9453 10.9373 19.7109 10.7017 19.4219 10.7017C19.2695 10.7017 19.1328 10.7665 19.0352 10.8701C18.9492 10.964 18.8945 11.0897 18.8945 11.2279Z" fill="white"/>
<path fill-rule="evenodd" clip-rule="evenodd" d="M19.3867 19.8246C14.6836 19.8246 10.875 16.0151 10.875 11.3159C10.875 6.61659 14.6836 2.8071 19.3867 2.8071C24.0859 2.8071 27.8945 6.61659 27.8945 11.3159C27.8945 16.0151 24.0859 19.8246 19.3867 19.8246ZM23.9375 4.8493C23.9609 4.81709 23.9531 4.7849 23.9062 4.75259L23.5742 4.5103L23.4531 4.6763L23.5078 4.7798L23.3398 5.0069L23.1953 4.9017L23.6367 4.3013L24.1836 4.6942C24.2773 4.7623 24.2969 4.8351 24.2383 4.9127L24.1328 5.0546C24.0781 5.1313 24.0039 5.1356 23.9062 5.0675L23.8242 5.00771L23.9453 5.44211L23.7344 5.2894L23.6484 4.87979L23.7852 4.91859C23.832 4.951 23.8633 4.951 23.8867 4.9189L23.9375 4.8493ZM25.6172 15.1406L25.9688 15.1815L25.7695 15.4569L25.957 15.9164L26.0664 15.7702L25.9883 15.5991L26.2812 15.2017L26.4688 15.2223L26.5898 15.0577L25.7188 14.9835L25.6133 15.1239L25.6172 15.1406ZM21.9688 18.6689L22.293 18.5637L22.0312 18.3237L22.0352 18.219L22.1992 18.1654L22.8633 18.7328L22.668 18.7958L22.5273 18.6693L22.0547 18.8211L22.0156 19.005L21.8438 19.0608L21.9688 18.6689ZM11.8086 8.86279L11.9414 8.90511L11.9727 8.7235L11.9023 8.7012C11.8359 8.6799 11.7852 8.6786 11.7539 8.6973C11.7227 8.71609 11.6953 8.761 11.6719 8.8322L11.5273 9.27271C11.5039 9.3439 11.5 9.3959 11.5156 9.429C11.5312 9.46201 11.5703 9.48911 11.6367 9.51041L12.0117 9.6313C12.0781 9.6523 12.125 9.65379 12.1602 9.6358C12.1797 9.62512 12.1953 9.60509 12.2109 9.5757L12.2422 9.50211L12.3867 9.06149C12.4102 8.9903 12.4141 8.9379 12.3984 8.9044C12.3867 8.8709 12.3438 8.84351 12.2773 8.8221L12.1953 8.795L12.1016 8.95709L12.2539 9.00591L12.1016 9.4698L11.6562 9.32669L11.8086 8.86279ZM12.5938 7.0405L12.9141 7.27051C12.9414 7.29037 12.9648 7.30446 12.9883 7.31274C13.0117 7.32137 13.0312 7.32372 13.0508 7.31979C13.0859 7.3121 13.125 7.278 13.1719 7.2175L13.5117 6.7533C13.5547 6.6937 13.5742 6.6458 13.5742 6.60941C13.5703 6.5731 13.5391 6.5347 13.4844 6.49409L13.1641 6.2641C13.1055 6.2229 13.0586 6.2063 13.0234 6.21429L12.9805 6.23395C12.957 6.25125 12.9336 6.27901 12.9062 6.3172L12.5625 6.7813C12.5195 6.8418 12.5 6.88989 12.5039 6.9254C12.5039 6.96091 12.5352 6.9993 12.5938 7.0405ZM14.7891 5.4996L14.9102 5.414L14.6133 5.011L15.1289 5.1447L15.1562 5.1241L15.1797 4.58859L15.4805 5.0016L15.6211 4.9026L15.1797 4.3022L15.0586 4.3878L15.0273 4.9565L14.4688 4.81371L14.3477 4.89929L14.7891 5.4996ZM17.457 4.3494L17.5977 4.3044L17.4414 3.83051L17.8906 4.11569L17.9258 4.1049L18.1133 3.60201L18.2734 4.08749L18.4336 4.03549L18.2031 3.3297L18.0625 3.37469L17.8516 3.9052L17.3672 3.5986L17.2266 3.6436L17.457 4.3494ZM20.5391 4.03149L21.3125 4.2804L21.3555 4.14861L20.7578 3.9561L20.8164 3.78259L21.1602 3.8932L21.1992 3.77139L20.8555 3.6608L20.9062 3.50729L21.4961 3.69699L21.5391 3.5719L20.7734 3.3257L20.5391 4.03149ZM26.0859 6.8849L25.9766 6.9653L26.1055 7.0975L26.1641 7.0551C26.2227 7.0146 26.25 6.9762 26.2539 6.9398C26.2578 6.9035 26.2383 6.8551 26.1914 6.79449L25.918 6.4198C25.8867 6.38133 25.8633 6.35353 25.8398 6.33641L25.7969 6.3175C25.7617 6.3098 25.7148 6.3262 25.6602 6.36679L25.3398 6.5968C25.2852 6.6366 25.2539 6.6747 25.25 6.71091C25.2461 6.7471 25.2656 6.79539 25.3086 6.856L25.5859 7.2307C25.6289 7.29131 25.6719 7.3257 25.707 7.33369C25.7422 7.3419 25.7891 7.3257 25.8438 7.2851L25.918 7.2336L25.8398 7.0643L25.707 7.1571L25.418 6.7625L25.7969 6.4903L26.0859 6.8849ZM26.5625 9.0313L26.8164 9.7972L26.9492 9.7543L26.7539 9.16211L26.9297 9.1057L27.043 9.446L27.1641 9.40649L27.0547 9.0661L27.207 9.0162L27.3984 9.6001L27.5273 9.55951L27.2773 8.802L26.5625 9.0313ZM27.0938 13.2904L27.332 12.5629L27.1992 12.5201L27.0195 13.074L26.4375 12.8875L26.3789 13.0611L27.0938 13.2904ZM24.2344 17.939L24.3711 17.842L24.0742 17.4376L24.8828 17.4729L24.9844 17.3997L24.543 16.7993L24.4102 16.8952L24.7031 17.294L23.8945 17.2654L23.793 17.3386L24.2344 17.939ZM19.6953 18.8684V19.0053L19.8789 18.979V18.907C19.8789 18.838 19.8672 18.7915 19.8359 18.7676C19.8086 18.7436 19.7578 18.7316 19.6836 18.7316H19.2148C19.1406 18.7316 19.0859 18.7436 19.0586 18.7676L19.0391 18.7916C19.0234 18.818 19.0195 18.8564 19.0195 18.907V19.2982C19.0195 19.3368 19.0234 19.3683 19.0312 19.3929C19.0391 19.4116 19.0469 19.4262 19.0586 19.4368C19.0859 19.4614 19.1406 19.4737 19.2148 19.4737H19.6836C19.7578 19.4737 19.8086 19.4618 19.8359 19.4378C19.8672 19.4138 19.8789 19.3673 19.8789 19.2982V19.2106L19.6953 19.1737V19.3316H19.2031V18.8684H19.6953ZM16.6953 18.8923L16.8711 18.9481L17.1016 18.2423L16.9297 18.1865L16.6953 18.8923ZM14.2344 17.3788L14.3711 17.4757L14.668 17.0712L14.8828 17.8449L14.9844 17.9182L15.4258 17.3178L15.293 17.2218L15 17.6206L14.7773 16.8516L14.6758 16.7784L14.2344 17.3788ZM12.418 15.3062L12.5039 15.424L12.9102 15.1312L12.7773 15.6425L12.7969 15.6709L13.3398 15.6916L12.9219 15.9918L13.0195 16.128L13.6289 15.6918L13.543 15.574L12.9688 15.5404L13.1094 14.9879L13.0234 14.87L12.418 15.3062ZM11.957 12.571L11.582 12.6919C11.5156 12.7133 11.4727 12.7404 11.457 12.7734C11.4453 12.8064 11.4492 12.8585 11.4727 12.9297L11.6523 13.4753C11.6758 13.5454 11.7031 13.5898 11.7344 13.6085C11.7656 13.6273 11.8125 13.6259 11.8789 13.6046L12.2578 13.4837L12.3359 13.4483C12.3555 13.4343 12.3711 13.4189 12.3789 13.402C12.3906 13.3691 12.3867 13.3171 12.3633 13.2459L12.1836 12.7004C12.1602 12.6292 12.1328 12.5844 12.1055 12.566C12.0859 12.5551 12.0586 12.5513 12.0273 12.5545L11.957 12.571ZM19.4805 6.1404C19.7734 6.1404 20.0117 5.9048 20.0117 5.61411C20.0117 5.32339 19.7734 5.0878 19.4805 5.0878C19.1875 5.0878 18.9492 5.32339 18.9492 5.61411C18.9492 5.9048 19.1875 6.1404 19.4805 6.1404ZM19.4805 17.8985C19.7734 17.8985 20.0117 17.6628 20.0117 17.3722C20.0117 17.0815 19.7734 16.8459 19.4805 16.8459C19.1875 16.8459 18.9492 17.0815 18.9492 17.3722C18.9492 17.6628 19.1875 17.8985 19.4805 17.8985ZM13.1797 11.8187C13.4727 11.8187 13.7109 11.583 13.7109 11.2923C13.7109 11.0017 13.4727 10.766 13.1797 10.766C12.8867 10.766 12.6484 11.0017 12.6484 11.2923C12.6484 11.454 12.7227 11.5987 12.8359 11.6953C12.9297 11.7723 13.0508 11.8187 13.1797 11.8187ZM25.2266 11.8261C25.5195 11.8261 25.7578 11.5904 25.7578 11.2997C25.7578 11.1442 25.6875 11.0045 25.582 10.9082C25.4883 10.8244 25.3633 10.7735 25.2266 10.7735C24.9297 10.7735 24.6953 11.0091 24.6953 11.2997C24.6953 11.5904 24.9297 11.8261 25.2266 11.8261ZM15.3047 16.4918C15.457 16.4918 15.7773 16.3295 16.1992 16.1132C17.0508 15.6804 18.3203 15.0315 19.543 15.0315C20.6445 15.0315 21.6953 15.6201 22.4648 16.0499C22.6953 16.1797 22.9023 16.295 23.0781 16.3752C23.2344 16.4478 23.3633 16.4918 23.4648 16.4918L23.3438 16.3812C22.3789 15.5033 21.1523 14.3823 19.543 14.3823C18.0195 14.3823 16.2812 15.734 15.3047 16.4918ZM15.3164 5.97029C16.2891 6.72908 18.0234 8.0739 19.543 8.0739C21.1523 8.0739 22.3789 6.9529 23.3438 6.0743L23.4648 5.9644C23.2539 5.9644 22.9062 6.1591 22.4648 6.4063C21.6953 6.83611 20.6445 7.4248 19.543 7.4248C18.3203 7.4248 17.0508 6.7757 16.1992 6.34311C15.9805 6.2308 15.7891 6.13307 15.6328 6.06503C15.4883 6.00197 15.3789 5.9644 15.3047 5.9644L15.3164 5.97029ZM14.0664 7.37469C14.0664 7.5425 14.2422 7.79401 14.4805 8.1293C14.9531 8.8 15.6641 9.80589 15.6641 11.1479C15.6641 12.3475 15.0273 13.4987 14.5508 14.3415V14.3513L14.5391 14.3809C14.2734 14.852 14.0664 15.2231 14.0664 15.4475C14.2109 15.234 14.3828 15.0084 14.5664 14.7693L14.5781 14.7518C15.3047 13.7894 16.1992 12.611 16.1992 11.1479C16.1992 9.99738 15.4844 9.15009 14.8398 8.38553L14.8281 8.375C14.5352 8.03169 14.2578 7.705 14.0664 7.37469ZM24.7031 7.20959C24.5703 7.3965 24.4062 7.5997 24.2344 7.8167C23.5039 8.7415 22.5703 9.91879 22.5703 11.1653C22.5703 12.7716 23.7422 14.1506 24.5781 15.1328L24.7031 15.2824C24.7031 15.0718 24.5 14.6987 24.2422 14.2251C23.793 13.4013 23.1797 12.2733 23.1797 11.1653C23.1797 9.94046 23.8516 8.80786 24.2969 8.04742L24.3086 8.0295C24.5352 7.6492 24.7031 7.364 24.7031 7.20959ZM20.293 13.8597L20.3984 13.8081L20.7109 13.7049L20.8672 13.6017L21.0742 13.3953L21.0234 13.2405L20.1367 12.0537V11.8473L20.1914 11.7957L20.293 11.7441L20.3984 11.7957L21.8555 12.6213L22.0117 12.5181L22.1133 12.3633L22.2188 12.1569L22.3242 11.7441V11.5893L22.2695 11.4861L22.1133 11.4345L20.3984 11.3829L20.293 11.3313L20.2422 11.2797L20.293 11.1765L20.3984 11.0733L21.5938 10.4025L21.75 10.2993L21.8555 10.1961L21.957 10.1445L22.0117 10.0413L21.9062 9.8349L21.8555 9.6801L21.75 9.5769L21.6992 9.47369L21.4922 9.2673H21.2812L20.0859 10.5573L19.9805 10.6089H19.8789L19.7734 10.5573L19.7227 10.4025V10.2993L19.8789 9.47369L19.9297 9.31891V8.7513L19.8789 8.6481L19.668 8.5965H19.1484L18.8359 8.69971L18.7852 8.8029V9.00931L18.8359 9.2673L19.1484 10.2477L19.2031 10.3509V10.5057L19.1484 10.6089L19.0469 10.6605H18.8906L18.0039 9.47369L17.8477 9.2673L17.5898 9.00931L17.1211 9.3705L16.8594 9.7317V9.8349L16.9648 9.9381L17.1719 10.0929L17.4336 10.2477L18.3672 10.7121L18.5234 10.8153L18.6289 10.9185L18.6797 11.0217L18.5781 11.1249H18.3672L18.0039 11.0733L17.5898 11.0217L17.2227 10.9701L17.0156 10.9185H16.8086L16.7031 10.9701L16.6016 11.0733L16.5469 11.2797V11.4861L16.6523 11.8989L16.7031 12.0537L16.7578 12.1569H16.9141L17.3789 12.0021L17.7969 11.8473L18.0586 11.7441L18.2656 11.6409L18.4219 11.5893L18.5234 11.5377L18.7344 11.6409L18.7852 11.7441V11.8473L18.2656 12.3633L18.0039 12.5697L17.6914 12.8793L17.6406 12.9825L17.5352 13.0857V13.2405L17.9023 13.6017L18.0039 13.6533L18.1602 13.7565L18.2656 13.8081H18.4727L18.5234 13.7565L18.5781 13.6017L18.8906 12.7761L19.0977 12.2601L19.2031 12.1569L19.3047 12.0021L19.4375 11.9505H19.5664L19.668 12.1569L19.7227 12.3117L19.7734 12.6729L19.8242 12.9825L19.8789 13.2405V13.3953L19.9297 13.5501L20.0352 13.7565L20.1914 13.8597H20.293Z" fill="white"/>
</svg>
