<svg width="28" height="31" viewBox="0 0 28 31" fill="none" xmlns="http://www.w3.org/2000/svg">
<path fill-rule="evenodd" clip-rule="evenodd" d="M17.9498 16.9139C15.7317 16.9139 13.9539 18.7094 13.9539 20.9098C13.9539 23.1102 15.7317 24.9057 17.9498 24.9057C20.1528 24.9057 21.9457 23.1129 21.9457 20.9098C21.9457 18.7068 20.1528 16.9139 17.9498 16.9139ZM15.9211 20.9098C15.9211 19.7907 16.8234 18.8812 17.9498 18.8812C19.0664 18.8812 19.9784 19.7932 19.9784 20.9098C19.9784 22.0264 19.0664 22.9385 17.9498 22.9385C16.8234 22.9385 15.9211 22.029 15.9211 20.9098Z" fill="white"/>
<path fill-rule="evenodd" clip-rule="evenodd" d="M14.8283 12.4926L14.5791 14.2755C14.3393 14.3982 14.111 14.534 13.8935 14.6792L12.2458 14.0107L12.2413 14.0089C11.6228 13.7615 10.8482 13.9879 10.4974 14.6449L8.78977 17.5967C8.41833 18.2255 8.60548 18.9789 9.10129 19.3984L9.11087 19.4069L10.5372 20.5153L10.5086 20.9104L10.5369 21.2952L9.12065 22.4049L9.10129 22.4213C8.59531 22.8494 8.43022 23.5842 8.78093 24.2077L10.5022 27.183C10.8578 27.8254 11.6296 28.0432 12.2413 27.7985L13.893 27.1378C14.1133 27.2832 14.3416 27.4168 14.5787 27.5386L14.8254 29.2951L14.8295 29.3185C14.9423 29.9577 15.4905 30.5 16.2284 30.5H19.6711C20.361 30.5 20.9716 29.9874 21.0638 29.28L21.3182 27.5372C21.5524 27.4166 21.7817 27.2836 22.004 27.1379L23.6563 27.8031L23.6839 27.8128C24.3188 28.0369 25.0242 27.8057 25.3835 27.2069L27.1127 24.218L27.1185 24.2076C27.4692 23.5842 27.3042 22.8494 26.7982 22.4213L26.7896 22.4136L25.3626 21.2952L25.3909 20.9104L25.3623 20.5153L26.7767 19.4166L26.7982 19.3984C27.294 18.9789 27.4812 18.2255 27.1097 17.5967L25.3943 14.6315L25.3935 14.6301C25.0401 14.009 24.3273 13.7675 23.6838 13.9946L23.6615 14.0025L22.0034 14.6791C21.7839 14.5336 21.5548 14.3985 21.3177 14.2769L21.0635 12.5252C20.9682 11.8165 20.3451 11.3197 19.6711 11.3197H16.2284C15.5057 11.3197 14.9502 11.8448 14.8314 12.4786L14.8283 12.4926ZM21.7169 16.9207L23.9248 16.0198L25.1704 18.173L23.3241 19.6077L23.4184 20.9093L23.3238 22.1966L25.1715 23.6448L23.9293 25.7921L21.7144 24.901L21.268 25.2482C20.8976 25.5363 20.4797 25.7777 20.0336 25.9689L19.5273 26.1859L19.1848 28.5328H16.705L16.3746 26.1818L15.8583 25.9656C15.4113 25.7785 15.0069 25.5402 14.6315 25.2482L14.1862 24.9018L11.9684 25.7889L10.728 23.6448L12.5757 22.1966L12.4811 20.9093L12.5754 19.6077L10.7291 18.173L11.9729 16.0229L14.1836 16.9199L14.6315 16.5715C15.018 16.2709 15.4169 16.0287 15.8401 15.8614L16.3732 15.6507L16.7036 13.2869H19.1862L19.5288 15.6467L20.052 15.8585C20.4734 16.029 20.8871 16.2753 21.268 16.5715L21.7169 16.9207Z" fill="white"/>
<path fill-rule="evenodd" clip-rule="evenodd" d="M6.77061 4.29892C5.31315 4.29892 4.14492 5.47874 4.14492 6.92461C4.14492 8.37048 5.31315 9.55029 6.77061 9.55029C8.21823 9.55029 9.39629 8.37223 9.39629 6.92461C9.39629 5.47698 8.21823 4.29892 6.77061 4.29892ZM5.43757 6.92461C5.43757 6.18922 6.03048 5.59157 6.77061 5.59157C7.50432 5.59157 8.10365 6.19089 8.10365 6.92461C8.10365 7.65832 7.50432 8.25765 6.77061 8.25765C6.03048 8.25765 5.43757 7.65999 5.43757 6.92461Z" fill="white"/>
<path fill-rule="evenodd" clip-rule="evenodd" d="M3.06821 2.27703L3.06525 2.27585C2.60541 2.09193 2.02885 2.25878 1.7663 2.74812L0.645474 4.68554C0.368899 5.15429 0.509378 5.71336 0.875707 6.02429L0.880696 6.0291L1.7725 6.72206L1.7578 6.92501L1.77224 7.12144L0.89316 7.81014L0.876906 7.82389C0.501413 8.14162 0.378045 8.68857 0.638654 9.15187L1.76987 11.1073C2.0361 11.5869 2.6106 11.7471 3.06527 11.5653L4.09138 11.1548C4.20518 11.2278 4.32217 11.2963 4.44256 11.3601L4.59575 12.4516L4.59921 12.4713C4.68271 12.9443 5.08942 13.3492 5.63955 13.3492H7.90168C8.41483 13.3492 8.86952 12.9677 8.93875 12.4405L9.09656 11.3593C9.21581 11.296 9.3331 11.2279 9.4478 11.1549L10.4744 11.5683L10.4975 11.5764C10.9677 11.7424 11.4934 11.5711 11.7607 11.1257L11.7617 11.124L12.898 9.15995L12.9025 9.15183C13.1629 8.689 13.0401 8.14269 12.6654 7.82481L12.6609 7.82052L11.769 7.12145L11.7834 6.92501L11.7687 6.72207L12.6462 6.0406L12.6643 6.0253C13.0316 5.71456 13.1724 5.15431 12.8954 4.68503L11.7691 2.73806C11.5064 2.27674 10.9745 2.09634 10.4975 2.2647L10.4828 2.26974L9.44751 2.69219C9.33406 2.61913 9.21685 2.55015 9.09634 2.48623L8.93838 1.39805C8.86679 0.868003 8.40213 0.5 7.90168 0.5H5.63955C5.10213 0.5 4.68993 0.890267 4.60101 1.36005L4.59904 1.36755L4.44278 2.48544C4.32118 2.5499 4.20422 2.61923 4.09165 2.69226L3.06821 2.27703ZM10.1747 6.01223L10.2408 6.92419L10.1744 7.82649L11.3561 8.75264L10.6467 9.97883L9.22463 9.40673L8.87553 9.67825C8.64114 9.86056 8.37585 10.014 8.09147 10.1359L7.6955 10.3056L7.47584 11.8107H6.05956L5.84759 10.3024L5.44377 10.1333C5.1603 10.0147 4.90397 9.86358 4.66569 9.67825L4.31739 9.40735L2.89342 9.97694L2.18515 8.75264L3.36678 7.82649L3.30044 6.9242L3.36652 6.01223L2.18606 5.09498L2.89613 3.86758L4.3154 4.44339L4.66569 4.17095C4.91267 3.97885 5.16469 3.82637 5.42956 3.72166L5.84652 3.55681L6.05875 2.03855H7.47669L7.69663 3.5537L8.10587 3.71934C8.37086 3.8266 8.63298 3.9823 8.87553 4.17095L9.22663 4.44402L10.644 3.86568L11.3552 5.09498L10.1747 6.01223Z" fill="white"/>
</svg>
