<svg width="30" height="30" viewBox="0 0 30 30" fill="none" xmlns="http://www.w3.org/2000/svg">
<path d="M0.5 7.5C0.223858 7.5 0 7.27614 0 7V0.5C0 0.223858 0.223858 0 0.5 0H7C7.27614 0 7.5 0.223858 7.5 0.5V7C7.5 7.27614 7.27614 7.5 7 7.5H0.5Z" fill="white"/>
<path d="M0.5 18.75C0.223858 18.75 0 18.5261 0 18.25V11.75C0 11.4739 0.223858 11.25 0.5 11.25H7C7.27614 11.25 7.5 11.4739 7.5 11.75V18.25C7.5 18.5261 7.27614 18.75 7 18.75H0.5Z" fill="white"/>
<path d="M0.5 30C0.223858 30 0 29.7761 0 29.5V23C0 22.7239 0.223858 22.5 0.5 22.5H7C7.27614 22.5 7.5 22.7239 7.5 23V29.5C7.5 29.7761 7.27614 30 7 30H0.5Z" fill="white"/>
<path d="M11.75 0C11.4739 0 11.25 0.223858 11.25 0.5V7C11.25 7.27614 11.4739 7.5 11.75 7.5H18.25C18.5261 7.5 18.75 7.27614 18.75 7V0.5C18.75 0.223858 18.5261 0 18.25 0H11.75Z" fill="white"/>
<path d="M23 0C22.7239 0 22.5 0.223858 22.5 0.5V7C22.5 7.27614 22.7239 7.5 23 7.5H29.5C29.7761 7.5 30 7.27614 30 7V0.5C30 0.223858 29.7761 0 29.5 0H23Z" fill="white"/>
<path d="M11.75 11.25C11.4739 11.25 11.25 11.4739 11.25 11.75V18.25C11.25 18.5261 11.4739 18.75 11.75 18.75H18.25C18.5261 18.75 18.75 18.5261 18.75 18.25V11.75C18.75 11.4739 18.5261 11.25 18.25 11.25H11.75Z" fill="white"/>
<path d="M23 11.25C22.7239 11.25 22.5 11.4739 22.5 11.75V18.25C22.5 18.5261 22.7239 18.75 23 18.75H29.5C29.7761 18.75 30 18.5261 30 18.25V11.75C30 11.4739 29.7761 11.25 29.5 11.25H23Z" fill="white"/>
<path d="M11.75 30C11.4739 30 11.25 29.7761 11.25 29.5V23C11.25 22.7239 11.4739 22.5 11.75 22.5H18.25C18.5261 22.5 18.75 22.7239 18.75 23V29.5C18.75 29.7761 18.5261 30 18.25 30H11.75Z" fill="white"/>
<path d="M23 30C22.7239 30 22.5 29.7761 22.5 29.5V23C22.5 22.7239 22.7239 22.5 23 22.5H29.5C29.7761 22.5 30 22.7239 30 23V29.5C30 29.7761 29.7761 30 29.5 30H23Z" fill="white"/>
</svg>
