<svg width="30" height="30" viewBox="0 0 30 30" fill="none" xmlns="http://www.w3.org/2000/svg">
<path d="M14.9091 6.81818V10.9091L20.3636 5.45455L14.9091 0V4.09091C12.0158 4.09091 9.24105 5.24026 7.1952 7.28611C5.14935 9.33196 4 12.1067 4 15C4 17.1409 4.62727 19.1318 5.69091 20.8091L7.68182 18.8182C7.06818 17.6864 6.72727 16.3636 6.72727 15C6.72727 12.83 7.58928 10.749 9.12367 9.21458C10.6581 7.68019 12.7391 6.81818 14.9091 6.81818V6.81818ZM24.1273 9.19091L22.1364 11.1818C22.7364 12.3273 23.0909 13.6364 23.0909 15C23.0909 17.17 22.2289 19.251 20.6945 20.7854C19.1601 22.3198 17.079 23.1818 14.9091 23.1818V19.0909L9.45455 24.5455L14.9091 30V25.9091C17.8024 25.9091 20.5771 24.7597 22.623 22.7139C24.6688 20.668 25.8182 17.8933 25.8182 15C25.8182 12.8591 25.1909 10.8682 24.1273 9.19091Z" fill="white"/>
</svg>
