<svg width="23" height="31" viewBox="0 0 23 31" fill="none" xmlns="http://www.w3.org/2000/svg">
<path d="M11.6591 7.31818V11.4091L17.1136 5.95455L11.6591 0.5V4.59091C8.76582 4.59091 5.99105 5.74026 3.9452 7.78611C1.89935 9.83196 0.75 12.6067 0.75 15.5C0.75 17.6409 1.37727 19.6318 2.44091 21.3091L4.43182 19.3182C3.81818 18.1864 3.47727 16.8636 3.47727 15.5C3.47727 13.33 4.33928 11.249 5.87367 9.71458C7.40806 8.18019 9.48914 7.31818 11.6591 7.31818V7.31818ZM20.8773 9.69091L18.8864 11.6818C19.4864 12.8273 19.8409 14.1364 19.8409 15.5C19.8409 17.67 18.9789 19.751 17.4445 21.2854C15.9101 22.8198 13.829 23.6818 11.6591 23.6818V19.5909L6.20455 25.0455L11.6591 30.5V26.4091C14.5524 26.4091 17.3271 25.2597 19.373 23.2139C21.4188 21.168 22.5682 18.3933 22.5682 15.5C22.5682 13.3591 21.9409 11.3682 20.8773 9.69091Z" fill="white"/>
</svg>
