<svg width="40" height="40" viewBox="0 0 40 40" fill="none" xmlns="http://www.w3.org/2000/svg">
<path fill-rule="evenodd" clip-rule="evenodd" d="M18.5 12C14.9101 12 12 14.9101 12 18.5C12 22.0899 14.9101 25 18.5 25C22.0899 25 25 22.0899 25 18.5C25 14.9101 22.0899 12 18.5 12ZM13 18.5C13 15.4624 15.4624 13 18.5 13C21.5376 13 24 15.4624 24 18.5C24 21.5376 21.5376 24 18.5 24C15.4624 24 13 21.5376 13 18.5Z" fill="#007F90"/>
<path d="M24.8536 24.1464C24.6583 23.9512 24.3417 23.9512 24.1464 24.1464C23.9512 24.3417 23.9512 24.6583 24.1464 24.8536L27.1464 27.8536C27.3417 28.0488 27.6583 28.0488 27.8536 27.8536C28.0488 27.6583 28.0488 27.3417 27.8536 27.1464L24.8536 24.1464Z" fill="#007F90"/>
</svg>
