<svg width="30" height="30" viewBox="0 0 30 30" fill="none" xmlns="http://www.w3.org/2000/svg">
<path d="M24.7826 13.4348V15.3913C27.6652 15.3913 30 17.7261 30 20.6087C30 21.6783 29.6739 22.6696 29.1261 23.4913L27.7043 22.0696C27.9261 21.6261 28.0435 21.1304 28.0435 20.6087C28.0435 18.8087 26.5826 17.3478 24.7826 17.3478V19.3043L21.8478 16.3696L21.8087 16.3304C21.887 16.2652 21.9783 16.213 24.7826 13.4348ZM24.7826 27.7826V25.8261C21.9 25.8261 19.5652 23.4913 19.5652 20.6087C19.5652 19.5391 19.8913 18.5478 20.4391 17.7261L21.8609 19.1478C21.6391 19.5913 21.5217 20.087 21.5217 20.6087C21.5217 22.4087 22.9826 23.8696 24.7826 23.8696V21.913L27.7174 24.8478L27.7565 24.887C27.6783 24.9522 27.587 25.0043 24.7826 27.7826ZM16.9957 21.2609H7.82609C4.94348 21.2609 2.6087 18.9261 2.6087 16.0435C2.6087 13.1609 4.94348 10.8261 7.82609 10.8261H8.75217C9.61304 7.81304 12.3913 5.6087 15.6522 5.6087C19.5652 5.6087 22.6957 8.7 22.8261 12.5478C23.6348 12.2739 24.5217 12.1304 25.4348 12.1304C27.1043 12.1304 28.6565 12.6261 30 13.4348C28.8652 12 27.1826 11.0087 25.2391 10.8652C24.3522 6.37826 20.4 3 15.6522 3C11.8826 3 8.6087 5.13913 6.97826 8.25652C3.05217 8.68696 0 12 0 16.0435C0 20.3609 3.5087 23.8696 7.82609 23.8696H17.6087C17.2696 23.0609 17.0609 22.1739 16.9957 21.2609Z" fill="white"/>
</svg>
