<svg width="30" height="26" viewBox="0 0 30 26" fill="none" xmlns="http://www.w3.org/2000/svg">
<path d="M24.7826 10.9348V12.8913C27.6652 12.8913 30 15.2261 30 18.1087C30 19.1783 29.6739 20.1696 29.1261 20.9913L27.7043 19.5696C27.9261 19.1261 28.0435 18.6304 28.0435 18.1087C28.0435 16.3087 26.5826 14.8478 24.7826 14.8478V16.8043L21.8478 13.8696L21.8087 13.8304C21.887 13.7652 21.9783 13.713 24.7826 10.9348ZM24.7826 25.2826V23.3261C21.9 23.3261 19.5652 20.9913 19.5652 18.1087C19.5652 17.0391 19.8913 16.0478 20.4391 15.2261L21.8609 16.6478C21.6391 17.0913 21.5217 17.587 21.5217 18.1087C21.5217 19.9087 22.9826 21.3696 24.7826 21.3696V19.413L27.7174 22.3478L27.7565 22.387C27.6783 22.4522 27.587 22.5043 24.7826 25.2826ZM16.9957 18.7609H7.82609C4.94348 18.7609 2.6087 16.4261 2.6087 13.5435C2.6087 10.6609 4.94348 8.32609 7.82609 8.32609H8.75217C9.61304 5.31304 12.3913 3.1087 15.6522 3.1087C19.5652 3.1087 22.6957 6.2 22.8261 10.0478C23.6348 9.77391 24.5217 9.63043 25.4348 9.63043C27.1043 9.63043 28.6565 10.1261 30 10.9348C28.8652 9.5 27.1826 8.50869 25.2391 8.36522C24.3522 3.87826 20.4 0.5 15.6522 0.5C11.8826 0.5 8.6087 2.63913 6.97826 5.75652C3.05217 6.18696 0 9.5 0 13.5435C0 17.8609 3.5087 21.3696 7.82609 21.3696H17.6087C17.2696 20.5609 17.0609 19.6739 16.9957 18.7609Z" fill="white"/>
</svg>
