<svg width="34" height="30" viewBox="0 0 34 30" fill="none" xmlns="http://www.w3.org/2000/svg">
<path d="M13.3333 0C9.65 0 6.66667 2.98333 6.66667 6.66667C6.66667 10.35 9.65 13.3333 13.3333 13.3333C17.0167 13.3333 20 10.35 20 6.66667C20 2.98333 17.0167 0 13.3333 0Z" fill="white"/>
<path d="M0 23.3333C0 19.65 5.96667 16.6667 13.3333 16.6667C14.5715 16.6667 15.7661 16.7509 16.899 16.9083C14.7298 18.5844 13.3333 21.2117 13.3333 24.1667C13.3333 25.0334 13.4535 25.872 13.678 26.6667H0V23.3333Z" fill="white"/>
<path d="M28.3333 11.6667L33.3333 16.6667L28.3333 21.6667V18.3333H21.6667V15H28.3333V11.6667Z" fill="white"/>
<path d="M21.6667 20V23.3333H28.3333V26.6667H21.6667V30L16.6667 25L21.6667 20Z" fill="white"/>
</svg>
