<svg width="35" height="32" viewBox="0 0 35 32" fill="none" xmlns="http://www.w3.org/2000/svg">
<path d="M14 0C10.1325 0 7 3.1325 7 7C7 10.8675 10.1325 14 14 14C17.8675 14 21 10.8675 21 7C21 3.1325 17.8675 0 14 0Z" fill="white"/>
<path d="M0 24.5C0 20.6325 6.265 17.5 14 17.5C15.3001 17.5 16.5544 17.5884 17.744 17.7538C15.4663 19.5136 14 22.2723 14 25.375C14 26.2851 14.1262 27.1656 14.3619 28H0V24.5Z" fill="white"/>
<path d="M29.75 12.25L35 17.5L29.75 22.75V19.25H22.75V15.75H29.75V12.25Z" fill="white"/>
<path d="M22.75 21V24.5H29.75V28H22.75V31.5L17.5 26.25L22.75 21Z" fill="white"/>
</svg>
