<svg width="23" height="30" viewBox="0 0 23 30" fill="none" xmlns="http://www.w3.org/2000/svg">
<path d="M11.1365 22.5166C9.60908 22.5166 8.3844 21.2782 8.3844 19.7645C8.3844 18.2371 9.60908 17.0125 11.1365 17.0125C11.8664 17.0125 12.5664 17.3024 13.0825 17.8185C13.5986 18.3346 13.8886 19.0346 13.8886 19.7645C13.8886 20.4944 13.5986 21.1944 13.0825 21.7105C12.5664 22.2267 11.8664 22.5166 11.1365 22.5166ZM19.3927 26.6447V12.8843H2.88025V26.6447H19.3927ZM19.3927 10.1323C20.1226 10.1323 20.8226 10.4222 21.3387 10.9383C21.8548 11.4544 22.1448 12.1544 22.1448 12.8843V26.6447C22.1448 27.3746 21.8548 28.0746 21.3387 28.5907C20.8226 29.1069 20.1226 29.3968 19.3927 29.3968H2.88025C1.35285 29.3968 0.128174 28.1584 0.128174 26.6447V12.8843C0.128174 11.3569 1.35285 10.1323 2.88025 10.1323H4.25629V7.38019C4.25629 5.55545 4.98116 3.80545 6.27145 2.51516C7.56174 1.22488 9.31174 0.5 11.1365 0.5C12.04 0.5 12.9347 0.677961 13.7694 1.02372C14.6042 1.36949 15.3626 1.87628 16.0015 2.51516C16.6404 3.15405 17.1472 3.91251 17.4929 4.74726C17.8387 5.582 18.0167 6.47667 18.0167 7.38019V10.1323H19.3927ZM11.1365 3.25208C10.0416 3.25208 8.99163 3.687 8.21746 4.46117C7.44329 5.23534 7.00836 6.28535 7.00836 7.38019V10.1323H15.2646V7.38019C15.2646 6.28535 14.8297 5.23534 14.0555 4.46117C13.2813 3.687 12.2313 3.25208 11.1365 3.25208Z" fill="white"/>
</svg>
