<svg width="30" height="30" viewBox="0 0 30 30" fill="none" xmlns="http://www.w3.org/2000/svg">
<path d="M14.7948 22.3333C13.3148 22.3333 12.1282 21.1333 12.1282 19.6667C12.1282 18.1867 13.3148 17 14.7948 17C15.5021 17 16.1804 17.281 16.6805 17.781C17.1806 18.2811 17.4615 18.9594 17.4615 19.6667C17.4615 20.3739 17.1806 21.0522 16.6805 21.5523C16.1804 22.0524 15.5021 22.3333 14.7948 22.3333ZM22.7948 26.3333V13H6.79484V26.3333H22.7948ZM22.7948 10.3333C23.5021 10.3333 24.1804 10.6143 24.6805 11.1144C25.1806 11.6145 25.4615 12.2928 25.4615 13V26.3333C25.4615 27.0406 25.1806 27.7189 24.6805 28.219C24.1804 28.719 23.5021 29 22.7948 29H6.79484C5.31484 29 4.12817 27.8 4.12817 26.3333V13C4.12817 11.52 5.31484 10.3333 6.79484 10.3333H8.12817V7.66667C8.12817 5.89856 8.83055 4.20286 10.0808 2.95262C11.331 1.70238 13.0267 1 14.7948 1C15.6703 1 16.5372 1.17244 17.3461 1.50747C18.1549 1.8425 18.8898 2.33356 19.5089 2.95262C20.1279 3.57168 20.619 4.30661 20.954 5.11544C21.2891 5.92428 21.4615 6.79119 21.4615 7.66667V10.3333H22.7948ZM14.7948 3.66667C13.734 3.66667 12.7166 4.08809 11.9664 4.83824C11.2163 5.58839 10.7948 6.6058 10.7948 7.66667V10.3333H18.7948V7.66667C18.7948 6.6058 18.3734 5.58839 17.6233 4.83824C16.8731 4.08809 15.8557 3.66667 14.7948 3.66667Z" fill="white"/>
</svg>
